<?xml version="1.0" encoding="UTF-8" standalone="no"?>
<!-- Created with Inkscape (http://www.inkscape.org/) -->

<svg
   xmlns:dc="http://purl.org/dc/elements/1.1/"
   xmlns:cc="http://creativecommons.org/ns#"
   xmlns:rdf="http://www.w3.org/1999/02/22-rdf-syntax-ns#"
   xmlns:svg="http://www.w3.org/2000/svg"
   xmlns="http://www.w3.org/2000/svg"
   xmlns:sodipodi="http://sodipodi.sourceforge.net/DTD/sodipodi-0.dtd"
   xmlns:inkscape="http://www.inkscape.org/namespaces/inkscape"
   width="744.09448"
   height="1366"
   viewBox="0 0 744.09449 1366"
   id="svg2"
   version="1.1"
   inkscape:version="0.91 r13725"
   sodipodi:docname="cak lontong celana.svg">
  <defs
     id="defs4">
    <marker
       inkscape:stockid="Arrow1Lstart"
       orient="auto"
       refY="0"
       refX="0"
       id="Arrow1Lstart"
       style="overflow:visible"
       inkscape:isstock="true">
      <path
         id="path4819"
         d="M 0,0 5,-5 -12.5,0 5,5 0,0 Z"
         style="fill:#000000;fill-opacity:1;fill-rule:evenodd;stroke:#000000;stroke-width:1pt;stroke-opacity:1"
         transform="matrix(0.8,0,0,0.8,10,0)"
         inkscape:connector-curvature="0" />
    </marker>
    <inkscape:perspective
       sodipodi:type="inkscape:persp3d"
       inkscape:vp_x="0 : 526.18109 : 1"
       inkscape:vp_y="0 : 999.99998 : 0"
       inkscape:vp_z="744.09449 : 526.18109 : 1"
       inkscape:persp3d-origin="372.04724 : 350.78739 : 1"
       id="perspective4600" />
  </defs>
  <sodipodi:namedview
     id="base"
     pagecolor="#ffffff"
     bordercolor="#666666"
     borderopacity="1.0"
     inkscape:pageopacity="0.0"
     inkscape:pageshadow="2"
     inkscape:zoom="0.49497475"
     inkscape:cx="174.56563"
     inkscape:cy="866.21018"
     inkscape:document-units="px"
     inkscape:current-layer="layer1"
     showgrid="false"
     inkscape:window-width="1301"
     inkscape:window-height="744"
     inkscape:window-x="65"
     inkscape:window-y="24"
     inkscape:window-maximized="1"
     units="px" />
  <metadata
     id="metadata7">
    <rdf:RDF>
      <cc:Work
         rdf:about="">
        <dc:format>image/svg+xml</dc:format>
        <dc:type
           rdf:resource="http://purl.org/dc/dcmitype/StillImage" />
        <dc:title></dc:title>
      </cc:Work>
    </rdf:RDF>
  </metadata>
  <g
     inkscape:groupmode="layer"
     id="layer2"
     inkscape:label="Layer 2"
     transform="translate(0,313.63782)">
    <path
       style="display:inline;fill:#1c2224;fill-rule:evenodd;stroke:#000000;stroke-width:1px;stroke-linecap:butt;stroke-linejoin:miter;stroke-opacity:1"
       d="M 127.27922,638.19967 98.994939,1070.5449 c 146.107891,46.9834 150.971621,13.5042 191.929001,6.0609 l 86.87311,-327.28939 c 14.73611,60.76624 42.50538,273.92809 62.62946,323.24889 79.55857,17.6025 148.10998,1.9745 202.03051,-6.061 l -28.28428,-426.28433 -54.54823,-8.08122 z"
       id="path4181"
       inkscape:connector-curvature="0"
       sodipodi:nodetypes="ccccccccc" />
  </g>
  <g
     inkscape:label="Layer 1"
     inkscape:groupmode="layer"
     id="layer1"
     style="display:inline"
     transform="translate(0,313.63782)">
    <path
       style="fill:#373748;fill-rule:evenodd;stroke:#000000;stroke-width:3.02381849;stroke-linecap:butt;stroke-linejoin:miter;stroke-miterlimit:4;stroke-dasharray:none;stroke-opacity:1"
       d="m 319.59257,27.929482 -33.59729,6.71677 28.85874,138.636718 2.61264,52.67483 -37.88285,259.80277 -6.53155,32.14057 -134.05063,74.12049 c 162.89627,112.3654 321.49885,92.66942 457.6317,13.75197 L 476.83587,483.975 461.16018,357.19836 441.56561,130.42893 l 1.3063,-51.782013 9.14414,-33.926142 -28.73869,-18.748641 -47.02698,37.497301 z"
       id="path5355"
       inkscape:connector-curvature="0"
       sodipodi:nodetypes="cccccccccccccccc" />
    <path
       style="fill:#1c1c24;fill-rule:evenodd;stroke:#000000;stroke-width:2.82755923px;stroke-linecap:butt;stroke-linejoin:miter;stroke-opacity:1"
       d="m 300.52482,-19.873412 -5.5545,31.838301 22.63133,35.14525 c 0,0 5.11927,187.939481 11.58507,187.939481 6.46576,0 -14.54804,99.67896 -14.54804,99.67896 l -24.0806,193.93619 c -6.61402,53.68268 -40.31053,85.19102 -62.41099,126.19402 -30.38248,32.41032 -6.80232,33.31752 -152.179131,-1.8185 -1.613515,-80.06489 27.006981,-145.34851 18.83402,-213.58581 l 3.2329,-30.28219 L 136.82955,175.74705 119.29021,22.844029 222.72795,-5.0067819 Z"
       id="path5238"
       inkscape:connector-curvature="0"
       sodipodi:nodetypes="cccscccccccccc" />
    <path
       style="fill:#ffb380;fill-rule:evenodd;stroke:#000000;stroke-width:0;stroke-linecap:butt;stroke-linejoin:miter;stroke-miterlimit:4;stroke-dasharray:none;stroke-opacity:1"
       d="m 306.0124,-59.882191 -5.89388,46.224979 c -10.49398,41.554511 49.14011,50.711951 68.78273,93.757241 0,0 80.19914,-76.4962805 83.81171,-79.41041046 C 456.32554,-2.2244919 440.91305,-51.111041 440.91305,-51.111041 Z"
       id="path5232"
       inkscape:connector-curvature="0"
       sodipodi:nodetypes="cccscc" />
    <path
       style="fill:#f9f9f9;fill-rule:evenodd;stroke:#000000;stroke-width:0;stroke-linecap:butt;stroke-linejoin:miter;stroke-miterlimit:4;stroke-dasharray:none;stroke-opacity:1"
       d="m 399.51381,-158.29219 c 15.80864,-6.59733 25.58659,-5.4197 42.97184,0.5191 -13.75068,4.89661 -27.44384,5.23688 -42.97184,-0.5191 z"
       id="path4606"
       inkscape:connector-curvature="0"
       sodipodi:nodetypes="ccc" />
    <path
       style="fill:#ffb380;fill-rule:evenodd;stroke:#ff9955;stroke-width:0.56212276;stroke-linecap:butt;stroke-linejoin:miter;stroke-miterlimit:4;stroke-dasharray:none;stroke-opacity:1"
       d="m 386.40832,-260.58464 c -34.04997,-5.86497 -83.54042,0.91576 -91.68289,15.03983 -18.13088,13.92134 -14.44007,49.03687 -17.72024,58.85147 -6.028,18.03652 -8.48677,93.827019 10.78622,115.741249 10.0034,11.3743 33.56112,25.5788 48.48974,32.1354 49.67895,21.818779 80.11069,3.75469 96.35386,-4.01749 29.23114,-18.08919 38.61192,-19.24772 43.14491,-92.200639 l 2.2236,-69.30537 c -1.37015,-11.03816 -20.49668,-32.466 -26.87782,-35.97338 -34.67473,-20.50048 -35.66069,-18.41363 -64.71738,-20.27107 z"
       id="path4556"
       inkscape:connector-curvature="0"
       sodipodi:nodetypes="ccsssccccc" />
    <path
       style="fill:#000000;fill-rule:evenodd;stroke:#000000;stroke-width:0.28106138;stroke-linecap:butt;stroke-linejoin:miter;stroke-miterlimit:4;stroke-dasharray:none;stroke-opacity:1"
       d="m 345.18953,-35.641181 -8.47489,13.731999 c 0,0 7.70443,-5.231249 6.93399,-2.942559 -0.77042,2.28866 -7.31922,14.058949 -5.77832,14.058949 1.54087,0 10.78621,-12.424199 10.78621,-12.424199 l -1.15568,9.481609 5.77836,-6.21209 c 0,0 3.85221,6.86601 3.85221,9.15468 0,2.2886701 5.39313,-7.84686 5.39313,-7.84686 l 0.38521,8.8277101 8.08968,-9.4816301 c 0,0 -1.15567,9.15467 -1.54091,12.4242001 -0.38521,3.26955 4.23745,-8.1738101 4.23745,-8.1738101 l 3.85223,3.59649 2.31135,-8.82773 6.16353,14.3859101 4.23745,-13.7319901 3.85224,8.50077 1.92612,-8.17384 2.31133,-5.885129 0.38521,5.558199 5.77834,-2.615619 1.15566,0 -1.15566,6.212089 6.54877,-6.866009 3.467,-1.30782 -11.55666,-9.80858 -2.69654,3.92343 -9.24534,-5.23123 -11.17145,5.88516 -5.39313,-5.23127 -14.63845,2.9426 -6.934,-4.25039 -9.63056,0.32696 z"
       id="path5321"
       inkscape:connector-curvature="0" />
    <path
       style="fill:#ffffff;fill-rule:evenodd;stroke:#000000;stroke-width:0;stroke-linecap:butt;stroke-linejoin:miter;stroke-miterlimit:4;stroke-dasharray:none;stroke-opacity:1"
       d="m 315.5537,-160.77606 c 16.51401,-5.40059 29.93203,-4.0587 40.82551,1.19813 -12.91788,6.21682 -27.22725,5.17536 -40.82551,-1.19813 z"
       id="path4610"
       inkscape:connector-curvature="0"
       sodipodi:nodetypes="ccc" />
    <path
       style="opacity:1;fill:#000000;stroke-width:0;stroke-miterlimit:4;stroke-dasharray:none"
       id="path4642"
       sodipodi:type="arc"
       sodipodi:cx="338.44821"
       sodipodi:cy="-160.21019"
       sodipodi:rx="4.8152795"
       sodipodi:ry="3.5964789"
       sodipodi:start="0"
       sodipodi:end="6.1912775"
       d="m 343.26349,-160.21019 a 4.8152795,3.5964789 0 0 1 -4.70465,3.59553 4.8152795,3.5964789 0 0 1 -4.92082,-3.43032 4.8152795,3.5964789 0 0 1 4.47853,-3.75315 4.8152795,3.5964789 0 0 1 5.12662,3.25786 l -4.79496,0.33008 z" />
    <path
       style="opacity:1;fill:#e6e6e6;stroke-width:0;stroke-miterlimit:4;stroke-dasharray:none"
       id="path4644"
       sodipodi:type="arc"
       sodipodi:cx="340.45419"
       sodipodi:cy="-161.39418"
       sodipodi:rx="1.6537182"
       sodipodi:ry="1.1046684"
       sodipodi:start="0"
       sodipodi:end="6.2540558"
       d="m 342.10791,-161.39418 a 1.6537182,1.1046684 0 0 1 -1.64167,1.10464 1.6537182,1.1046684 0 0 1 -1.66559,-1.08855 1.6537182,1.1046684 0 0 1 1.61742,-1.1205 1.6537182,1.1046684 0 0 1 1.68914,1.07224 l -1.65302,0.0322 z" />
    <path
       style="opacity:1;fill:#1a1a1a;fill-rule:evenodd;stroke:#000000;stroke-width:0;stroke-linecap:butt;stroke-linejoin:miter;stroke-miterlimit:0;stroke-dasharray:none;stroke-opacity:1"
       d="m 273.0595,-156.91741 -4.52924,-47.43137 c 3.48237,-18.86562 1.15702,-41.67468 13.86803,-54.27415 l 6.93398,-7.84688 c 2.30656,-5.23122 6.36197,-7.84687 4.62268,-13.0781 -1.30047,-6.62256 44.73923,-26.53791 48.53804,-22.88666 2.03985,1.9606 20.80197,-3.26954 27.73598,-0.65392 6.93401,2.61562 30.81778,1.9617 37.7518,3.92343 6.934,1.96171 30.04733,6.53905 30.81778,11.77029 0.77045,5.23124 26.96558,17.65544 26.96558,21.57887 0,3.92343 3.08176,15.03983 4.62266,18.30936 1.54088,3.26952 10.78622,20.27106 10.01577,26.15623 -0.77044,5.88513 2.70274,30.64061 1.5409,34.65697 -2.3989,8.29281 -6.66906,36.29281 -4.71611,26.34773 l 0.8639,7.00143 -4.62269,-28.77184 -8.47488,-11.11637 c -2.88672,-6.09022 10.48434,1.44278 -11.55666,-17.00155 -0.0275,-1.05154 -3.66116,-25.60224 -13.86802,-30.07963 1.47211,3.1236 -27.13454,-4.2377 -28.50646,-5.23127 -11.31588,-8.1952 -68.89072,3.2165 -71.90439,-1.04655 3.02542,2.56778 5.90201,-11.33742 1.53836,-5.4497 0,0 6.20286,-4.23394 -7.27327,4.97368 -5.16264,3.52738 -37.15698,6.09992 -37.15698,6.09992 l -13.09757,30.73357 c 1.40296,24.2305 -4.6226,19.18145 -5.39308,26.81011 z"
       id="path4595"
       inkscape:connector-curvature="0"
       sodipodi:nodetypes="cccccssssssssccccccscsscccc" />
    <path
       style="display:inline;fill:#ffffff;fill-rule:evenodd;stroke:#000000;stroke-width:0;stroke-linecap:butt;stroke-linejoin:miter;stroke-miterlimit:4;stroke-dasharray:none;stroke-opacity:1"
       d="m 441.38401,-159.16215 c -16.51401,-5.40059 -29.93203,-4.05871 -40.82551,1.19813 12.91788,6.21681 27.22724,5.17536 40.82551,-1.19813 z"
       id="path4610-2"
       inkscape:connector-curvature="0"
       sodipodi:nodetypes="ccc" />
    <path
       style="opacity:1;fill:#000000;stroke-width:0;stroke-miterlimit:4;stroke-dasharray:none"
       id="path4642-6"
       sodipodi:type="arc"
       sodipodi:cx="417.26675"
       sodipodi:cy="-158.67245"
       sodipodi:rx="4.8152795"
       sodipodi:ry="3.5964789"
       sodipodi:start="0"
       sodipodi:end="6.276429"
       d="m 422.08203,-158.67245 a 4.8152795,3.5964789 0 0 1 -4.80714,3.59647 4.8152795,3.5964789 0 0 1 -4.82339,-3.58433 4.8152795,3.5964789 0 0 1 4.79085,-3.60858 4.8152795,3.5964789 0 0 1 4.83957,3.57214 l -4.81517,0.0243 z" />
    <path
       style="opacity:1;fill:#e6e6e6;stroke-width:0;stroke-miterlimit:4;stroke-dasharray:none"
       id="path4665"
       sodipodi:type="arc"
       sodipodi:cx="415.79193"
       sodipodi:cy="-159.68156"
       sodipodi:rx="1.6343598"
       sodipodi:ry="1.2715474"
       sodipodi:start="0"
       sodipodi:end="6.2764309"
       d="m 417.42629,-159.68156 a 1.6343598,1.2715474 0 0 1 -1.6316,1.27154 1.6343598,1.2715474 0 0 1 -1.63711,-1.26725 1.6343598,1.2715474 0 0 1 1.62607,-1.27583 1.6343598,1.2715474 0 0 1 1.6426,1.26295 l -1.63432,0.009 z" />
    <path
       style="opacity:1;fill:#000000;stroke-width:0;stroke-miterlimit:4;stroke-dasharray:none"
       id="path4697"
       d="m 352.61876,-164.17209 c -1.63337,0.1039 -3.19545,-0.35617 -4.74879,-0.72129 -0.97974,-0.054 -1.83718,-0.44135 -2.78875,-0.60367 -0.29898,-0.051 -0.60818,-0.055 -0.90404,-0.11737 -0.49789,-0.10495 -0.96537,-0.29488 -1.45026,-0.43696 -0.25596,-0.0409 -0.5184,-0.0593 -0.76783,-0.1227 -1.22822,-0.31342 -0.35164,-0.24159 -1.65027,-0.61911 -0.37096,-0.10775 -0.76372,-0.15173 -1.14238,-0.23822 -1.03742,-0.23667 -0.97205,-0.24002 -1.95665,-0.5622 -0.36583,-0.065 -0.74037,-0.10146 -1.09747,-0.19523 -0.29746,-0.0783 -0.55807,-0.24106 -0.85627,-0.31743 -0.33264,-0.0851 -0.68573,-0.0974 -1.02425,-0.16364 -0.29318,-0.0575 -0.57421,-0.15666 -0.8692,-0.20715 -0.31492,-0.054 -1.51836,-0.15873 -1.86185,-0.19033 -1.57416,-0.17632 -3.11343,-0.0621 -4.68451,0.0207 -0.30082,0.0426 -0.59997,0.0963 -0.90279,0.12789 -0.69154,0.0722 -0.78611,-0.006 -1.48737,0.131 -0.85097,0.16417 -1.67508,0.48112 -2.49735,0.72401 -1.5828,0.64108 -3.26882,1.03675 -4.86251,1.65339 -1.43558,0.46981 -2.82347,1.01491 -4.25328,1.49231 -0.23766,0.0794 -0.47545,0.15923 -0.71318,0.23875 0,0 5.30863,-2.99941 5.30863,-2.99941 l 0,0 c 0.22696,-0.0783 0.45373,-0.15665 0.68062,-0.23486 1.46515,-0.5051 2.91401,-1.04245 4.36997,-1.56709 1.62912,-0.52942 3.28451,-0.99744 4.87614,-1.60841 1.5501,-0.39774 3.0761,-0.76368 4.71535,-0.7439 1.62824,-0.22243 3.31854,-0.21362 4.94869,-0.001 0.59868,0.0919 1.20502,0.15303 1.79609,0.27545 1.00464,0.20793 0.76534,0.25738 1.76215,0.47362 1.88092,0.40779 0.33089,-0.0783 1.9843,0.50033 0.95265,0.17374 1.26831,0.20405 2.17551,0.47277 0.33325,0.0987 0.64725,0.24185 0.9835,0.33303 0.35455,0.096 0.73182,0.12478 1.08394,0.22709 0.23338,0.0679 0.42872,0.2131 0.66256,0.27991 0.25262,0.072 0.52285,0.0886 0.78428,0.13308 0.75379,0.17633 1.69664,0.32702 2.41641,0.52627 0.24865,0.069 0.46471,0.20819 0.71243,0.27947 0.48829,0.14065 1.46341,0.28074 1.95685,0.35987 0.90931,0.21052 1.80016,0.35813 2.73414,0.4686 0.44934,0.053 0.89699,0.15924 1.35037,0.14448 0.26358,-0.007 0.52128,-0.0699 0.78195,-0.10495 0,0 -5.56488,2.89433 -5.56488,2.89433 z"
       inkscape:connector-curvature="0" />
    <path
       style="opacity:1;fill:#000000;stroke-width:0;stroke-miterlimit:4;stroke-dasharray:none"
       id="path4697-7"
       d="m 404.14795,-161.90343 c 1.63338,0.10391 3.19545,-0.35617 4.74881,-0.72128 0.97972,-0.0541 1.83715,-0.44134 2.78873,-0.60367 0.29897,-0.051 0.60818,-0.0549 0.90403,-0.11737 0.49789,-0.10495 0.96538,-0.29488 1.45027,-0.43696 0.25598,-0.0409 0.51841,-0.0593 0.76783,-0.12271 1.22822,-0.31341 0.35164,-0.24158 1.65027,-0.6191 0.37096,-0.10775 0.76371,-0.15173 1.14238,-0.23822 1.03742,-0.23667 0.97204,-0.24003 1.95667,-0.56221 0.36582,-0.065 0.74036,-0.10145 1.09747,-0.19522 0.29744,-0.0783 0.55804,-0.24106 0.85625,-0.31743 0.33264,-0.0851 0.68575,-0.0974 1.02425,-0.16365 0.29318,-0.0575 0.57424,-0.15665 0.86922,-0.20714 0.31489,-0.054 1.51834,-0.15873 1.86183,-0.19031 1.57417,-0.17634 3.11346,-0.0621 4.68451,0.0207 0.30082,0.0426 0.59998,0.0963 0.9028,0.12788 0.69154,0.0722 0.78609,-0.005 1.48737,0.13101 0.85095,0.16416 1.67507,0.48112 2.49735,0.72401 1.58279,0.64106 3.26881,1.03673 4.86249,1.65338 1.4356,0.46981 2.8235,1.01492 4.25328,1.49232 0.23767,0.0794 0.47547,0.15925 0.71318,0.23873 0,0 -5.30859,-2.99939 -5.30859,-2.99939 l 0,0 c -0.22698,-0.0783 -0.45376,-0.15666 -0.68065,-0.23487 -1.46515,-0.50509 -2.91401,-1.04244 -4.36997,-1.56709 -1.62913,-0.52941 -3.2845,-0.99744 -4.87613,-1.60841 -1.55012,-0.39772 -3.0761,-0.76368 -4.71536,-0.74389 -1.62824,-0.22243 -3.31854,-0.21363 -4.94868,-0.001 -0.59868,0.0919 -1.20503,0.15303 -1.7961,0.27545 -1.00463,0.20793 -0.76534,0.25738 -1.76214,0.47363 -1.88093,0.4078 -0.33089,-0.0783 -1.98432,0.50033 -0.95264,0.17375 -1.2683,0.20404 -2.17548,0.47276 -0.33328,0.0987 -0.64726,0.24185 -0.98352,0.33305 -0.35455,0.096 -0.73179,0.12477 -1.08393,0.22708 -0.23339,0.0679 -0.42872,0.21309 -0.66257,0.2799 -0.2526,0.072 -0.52286,0.0886 -0.78427,0.13308 -0.75379,0.17633 -1.69664,0.32704 -2.41642,0.52629 -0.24864,0.069 -0.46469,0.20818 -0.71243,0.27947 -0.48829,0.14063 -1.46341,0.28073 -1.95684,0.35986 -0.90933,0.21051 -1.80016,0.35813 -2.73415,0.46859 -0.44933,0.053 -0.89699,0.15925 -1.35037,0.14448 -0.26358,-0.007 -0.52128,-0.07 -0.78194,-0.10495 0,0 5.56487,2.89433 5.56487,2.89433 z"
       inkscape:connector-curvature="0" />
    <path
       style="opacity:1;fill:#ff7f2a;stroke-width:0;stroke-miterlimit:4;stroke-dasharray:none"
       id="path4744"
       d="m 404.63526,-145.2555 c 2.22637,0.23589 4.418,0.82169 6.55413,1.44623 1.035,0.14315 2.05084,0.51307 3.0993,0.59002 0.35025,0.026 0.70454,-0.0443 1.05416,-0.0133 0.71839,0.0658 1.41695,0.25558 2.13138,0.35011 2.03099,0.22526 4.04506,0.54946 6.10143,0.58348 1.99292,-0.0813 3.94534,-0.41747 5.91775,-0.67247 1.80589,-0.0557 3.44418,-0.73909 5.16279,-1.13954 1.84213,-0.65369 3.63436,-1.38426 5.41163,-2.17694 0.36689,-0.19499 0.74242,-0.3769 1.1007,-0.58455 0.44994,-0.26085 1.76948,-1.08474 1.32252,-0.81981 -3.00202,1.77928 -4.0128,2.54536 -1.93744,1.05635 0,0 4.4165,-1.90977 4.4165,-1.90977 l 0,0 c -2.65197,1.98729 -5.56658,3.67105 -8.52789,5.25106 -1.7716,0.77376 -3.55348,1.51051 -5.41973,2.07901 -1.71252,0.58331 -3.49411,0.95944 -5.30592,1.16626 -1.95905,0.16027 -3.89631,0.51188 -5.86905,0.54384 -2.05785,-0.0701 -4.10223,-0.18385 -6.10671,-0.6577 -2.17768,-0.0849 -4.29784,-0.43555 -6.41742,-0.90739 -2.13663,-0.53868 -4.27601,-1.20418 -6.49645,-1.33289 0,0 3.80832,-2.85309 3.80832,-2.85309 z"
       inkscape:connector-curvature="0" />
    <path
       style="opacity:1;fill:#ff7f2a;stroke-width:0;stroke-miterlimit:4;stroke-dasharray:none"
       id="path4744-5"
       d="m 355.36311,-146.1262 c -2.22636,0.23588 -4.418,0.82167 -6.55414,1.44621 -1.03499,0.14315 -2.05083,0.51309 -3.09927,0.59005 -0.35027,0.026 -0.70457,-0.0443 -1.05418,-0.0133 -0.71838,0.0658 -1.41694,0.25555 -2.13139,0.35007 -2.03098,0.22527 -4.04506,0.54949 -6.10142,0.58351 -1.99291,-0.0814 -3.94534,-0.41747 -5.91775,-0.67249 -1.80588,-0.0557 -3.44418,-0.73909 -5.16277,-1.13953 -1.84216,-0.6537 -3.63437,-1.38427 -5.41166,-2.17696 -0.36688,-0.19498 -0.74239,-0.37686 -1.10069,-0.58453 -0.44993,-0.26085 -1.76947,-1.08472 -1.32253,-0.81982 3.00202,1.77929 4.01282,2.54537 1.93745,1.05635 0,0 -4.4165,-1.90976 -4.4165,-1.90976 l 0,0 c 2.65198,1.98728 5.56659,3.67104 8.52788,5.25106 1.7716,0.77375 3.5535,1.51051 5.41973,2.079 1.71253,0.58333 3.49412,0.95946 5.30592,1.16626 1.95906,0.16028 3.89631,0.51188 5.86906,0.54383 2.05786,-0.0701 4.10223,-0.18383 6.1067,-0.65769 2.1777,-0.0849 4.29785,-0.43553 6.41744,-0.90739 2.13663,-0.53868 4.27599,-1.20418 6.49644,-1.33289 0,0 -3.80832,-2.85309 -3.80832,-2.85309 z"
       inkscape:connector-curvature="0" />
    <path
       style="fill:#a02c2c;fill-rule:evenodd;stroke:#000000;stroke-width:0;stroke-linecap:butt;stroke-linejoin:miter;stroke-miterlimit:4;stroke-dasharray:none;stroke-opacity:1"
       d="m 339.36222,-80.530171 c 8.83805,-4.56215 28.05652,-7.6293 28.05652,-7.6293 5.87788,-1.22794 8.3775,2.30682 12.80249,3.0055 1.83373,-2.99521 9.17589,-3.23664 9.17589,-3.23664 8.82217,2.0773 13.51896,3.6956 13.51896,3.6956 l 8.63037,5.08961 c -23.47938,-2.15445 -46.54597,-3.0457 -72.18423,-0.92477 z"
       id="path5143"
       inkscape:connector-curvature="0"
       sodipodi:nodetypes="ccccscc" />
    <path
       style="fill:#a02c2c;fill-rule:evenodd;stroke:#000000;stroke-width:0.84629083;stroke-linecap:butt;stroke-linejoin:miter;stroke-miterlimit:4;stroke-dasharray:none;stroke-opacity:1"
       d="m 339.08997,-80.612151 c 24.3909,-1.13545 48.77776,-1.32546 72.45931,1.15159 -11.80562,5.89725 -18.03089,7.01771 -31.95228,8.30593 -14.66534,-1.40052 -28.04889,-2.56573 -40.50703,-9.45747 z"
       id="path5145"
       inkscape:connector-curvature="0"
       sodipodi:nodetypes="ccccc" />
    <path
       style="fill:#ffb380;fill-rule:evenodd;stroke:#000000;stroke-width:0;stroke-linecap:butt;stroke-linejoin:miter;stroke-miterlimit:4;stroke-dasharray:none;stroke-opacity:1"
       d="m 274.69383,-155.30588 c -8.22852,-12.42422 -20.80551,-11.77032 -23.11332,-11.77032 -8.59906,6.05044 -3.51825,15.6175 -4.62266,24.84841 l 8.47489,12.42421 c 2.75475,10.5213 1.25527,18.09396 5.39311,21.5789 9.20182,7.74986 17.86433,4.16799 16.94979,2.61561 l -0.77045,-0.65391 -3.0818,-51.00464"
       id="path5151"
       inkscape:connector-curvature="0"
       sodipodi:nodetypes="ccccsccc" />
    <path
       style="fill:#ff7f2a;fill-rule:evenodd;stroke:#000000;stroke-width:0;stroke-linecap:butt;stroke-linejoin:miter;stroke-miterlimit:4;stroke-dasharray:none;stroke-opacity:1"
       d="m 269.30074,-120.64891 -0.77044,-25.82927 c -3.21347,-12.94261 -11.83832,-5.4133 -13.86803,-1.63475 5.37944,14.47226 16.1561,17.12922 14.63847,27.46402 z"
       id="path5157"
       inkscape:connector-curvature="0"
       sodipodi:nodetypes="cccc" />
    <path
       style="fill:#ffb380;fill-rule:evenodd;stroke:#000000;stroke-width:0;stroke-linecap:butt;stroke-linejoin:miter;stroke-miterlimit:4;stroke-dasharray:none;stroke-opacity:1"
       d="m 474.34577,-159.40016 c 8.22853,-12.42422 20.80552,-11.77031 23.11333,-11.77031 8.59905,6.05042 3.51824,15.61749 4.62266,24.84841 l -8.47489,12.42423 c -2.75476,10.5213 -1.25528,18.09396 -5.39311,21.57889 -9.20182,7.74988 -17.86434,4.16799 -16.9498,2.61561 l 0.77045,-0.65391 3.08181,-51.00466"
       id="path5151-3"
       inkscape:connector-curvature="0"
       sodipodi:nodetypes="ccccsccc" />
    <path
       style="fill:#ff7f2a;fill-rule:evenodd;stroke:#000000;stroke-width:0;stroke-linecap:butt;stroke-linejoin:miter;stroke-miterlimit:4;stroke-dasharray:none;stroke-opacity:1"
       d="m 496.62198,-166.23074 c -2.73251,1.20165 2.53339,1.0147 2.59396,5.13117 0.0125,0.76323 -0.0323,2.45575 -0.47358,3.48517 -1.37851,11.33311 -9.27482,18.41179 -13.39798,27.67538 2.57542,-8.16974 9.24013,-18.1073 2.74816,-23.99123 -5.6449,-5.11621 -0.40798,-15.36965 8.52944,-12.30049 z"
       id="path5174"
       inkscape:connector-curvature="0"
       sodipodi:nodetypes="csccsc" />
    <path
       style="opacity:1;fill:#000000;stroke-width:0;stroke-miterlimit:4;stroke-dasharray:none"
       id="path5194"
       sodipodi:type="arc"
       sodipodi:cx="363.33279"
       sodipodi:cy="-110.81608"
       sodipodi:rx="8.1717997"
       sodipodi:ry="4.1614275"
       sodipodi:start="0"
       sodipodi:end="6.2764309"
       d="m 371.50459,-110.81608 a 8.1717997,4.1614275 0 0 1 -8.158,4.16142 8.1717997,4.1614275 0 0 1 -8.18555,-4.14736 8.1717997,4.1614275 0 0 1 8.13036,-4.17543 8.1717997,4.1614275 0 0 1 8.21301,4.13326 l -8.17162,0.0281 z" />
    <path
       style="fill:#000000;fill-rule:evenodd;stroke:#000000;stroke-width:0;stroke-linecap:butt;stroke-linejoin:miter;stroke-miterlimit:4;stroke-dasharray:none;stroke-opacity:1"
       d="m 379.67645,-108.5042 c 4.41639,-2.00366 6.93932,-4.00732 16.07121,-6.01098 1.47214,0.28057 2.74629,0.057 4.90307,2.08073 1.86328,4.65784 -0.0125,5.61232 -2.45154,6.01096 z"
       id="path5196"
       inkscape:connector-curvature="0"
       sodipodi:nodetypes="ccccc" />
    <path
       style="fill:none;fill-rule:evenodd;stroke:#000000;stroke-width:2.81061387px;stroke-linecap:butt;stroke-linejoin:miter;stroke-opacity:1"
       d="M 92.029059,23.043149 Z"
       id="path5263"
       inkscape:connector-curvature="0" />
    <path
       style="fill:#1c1c24;fill-rule:evenodd;stroke:#000000;stroke-width:2.76351452px;stroke-linecap:butt;stroke-linejoin:miter;stroke-opacity:1"
       d="m 612.40404,22.038679 -163.1955,-43.425851 1.62111,9.74866 -13.18977,44.312071 -8.79317,42.53963 -1.09914,124.960101 2.19828,30.13224 28.57779,248.14772 24.18121,71.7856 17.58634,46.08457 9.4341,19.63317 19.11242,48.85531 c 0,0 22.01417,7.72839 33.00562,9.50089 10.99147,1.7725 87.93167,-17.725 87.93167,-17.725 0,0 15.38802,-7.0898 16.48717,-12.4073 1.09914,-5.3174 -4.39659,-30.1322 -4.39659,-37.2222 0,-7.0899 -10.99147,-51.40199 -10.99147,-51.40199 0,0 -5.49572,-35.4497 -5.49572,-39.88089 0,-4.43121 -15.38805,-41.65337 -15.38805,-41.65337 l -17.5863,-62.03693 -7.69403,-65.58193 -27.47862,-177.24834 -5.49576,-30.13225 16.48721,-46.97081 13.18973,-39.880881 z"
       id="path5315"
       inkscape:connector-curvature="0"
       sodipodi:nodetypes="ccccccccccccscsscscccccccc" />
    <path
       style="display:inline;fill:#1c1c24;fill-rule:evenodd;stroke:#000000;stroke-width:2.81061387px;stroke-linecap:butt;stroke-linejoin:miter;stroke-opacity:1"
       d="m 450.45848,-22.624011 -3.91833,18.6787791 -37.65835,29.2342409 18.21029,7.06714 10.12529,16.53915 c 9.32829,-18.87151 18.28738,-38.2717 18.28738,-38.2717 7.06649,-6.8657705 -3.58205,-19.0850809 -5.04628,-33.24761 z"
       id="path5240-5"
       inkscape:connector-curvature="0"
       sodipodi:nodetypes="cccccsc" />
    <path
       style="fill:#1c1c24;fill-rule:evenodd;stroke:#000000;stroke-width:2.81061387px;stroke-linecap:butt;stroke-linejoin:miter;stroke-opacity:1"
       d="m 300.75684,-21.009322 8.13305,21.65821054 C 323.96733,17.318829 338.3872,29.249679 335.57488,26.805789 c 0,0 -10.65508,0.49348 -20.03692,3.5669 -5.00107,1.63831 -7.88988,9.41815 -10.34538,17.11941 -9.95338,-22.44105 -13.57379,-31.17794 -11.29356,-40.4914305 z"
       id="path5240"
       inkscape:connector-curvature="0"
       sodipodi:nodetypes="ccsscsc" />
    <path
       style="fill:#1c1c24;fill-rule:evenodd;stroke:#000000;stroke-width:2.85367298px;stroke-linecap:butt;stroke-linejoin:miter;stroke-opacity:1"
       d="M 117.05787,22.695739 C 74.705074,127.70355 68.743272,363.22888 96.008419,361.71788 c 7.716731,22.53455 161.962431,14.06688 348.289701,2.61931 -0.16725,-12.73473 24.16001,-16.38455 17.10848,-62.10706 -71.90705,-14.01461 -153.02726,-12.27611 -213.24803,-14.23067 -16.00931,-0.51958 -40.89061,-23.80795 -39.88869,-32.34893 3.26009,-27.79141 -9.67761,-34.67797 -6.96653,-37.01098 -3.94972,-26.93632 4.85054,-12.96053 5.81637,-49.08985 4.99847,-47.03544 1.60216,-50.51839 -11.6071,-71.94287"
       id="path5261"
       inkscape:connector-curvature="0"
       sodipodi:nodetypes="ccccssccc" />
    <path
       style="fill:#ff9955;fill-rule:evenodd;stroke:#000000;stroke-width:0.27268466;stroke-linecap:butt;stroke-linejoin:miter;stroke-miterlimit:4;stroke-dasharray:none;stroke-opacity:1"
       d="m 445.48178,313.65419 c 17.93674,4.87648 35.40302,9.41354 58.00751,17.65815 l 44.59325,-3.59703 c -13.8114,7.11633 -21.52208,8.73 -31.90414,12.75312 -3.74492,9.91969 -14.32633,14.79426 -25.74079,21.25519 l -46.76853,2.28897 c 3.80627,-16.37061 5.6058,-33.13098 1.8127,-50.3584 z"
       id="path5271"
       inkscape:connector-curvature="0"
       sodipodi:nodetypes="ccccccc" />
    <path
       style="fill:#ff9955;fill-rule:evenodd;stroke:#000000;stroke-width:0.28106138;stroke-linecap:butt;stroke-linejoin:miter;stroke-miterlimit:4;stroke-dasharray:none;stroke-opacity:1"
       d="m 203.81292,227.22873 c 3.08181,-0.65393 43.91537,-0.65393 43.91537,-0.65393 0,0 29.2769,6.53907 33.12912,6.53907 l 30.81779,0 -1.54089,58.19755 -18.49065,-5.88513 2.31132,8.50074 -7.70445,7.84689 c -22.69128,-5.44162 -42.2553,-14.8646 -60.86515,-25.5023 -13.13524,-10.48649 -18.82673,-16.23463 -23.88378,-21.57887 z"
       id="path5275"
       inkscape:connector-curvature="0"
       sodipodi:nodetypes="ccscccccccc" />
    <path
       style="fill:#1c1c24;fill-rule:evenodd;stroke:#000000;stroke-width:2.81061387px;stroke-linecap:butt;stroke-linejoin:miter;stroke-opacity:1"
       d="m 291.42097,233.88885 2.1792,76.7552 c 151.17478,41.68305 208.37347,34.02102 288.73689,46.23812 37.62736,0.843 60.19923,-6.83279 80.62844,-15.72096 31.25662,-15.89172 23.29978,-41.29256 34.86634,-61.95903 l -23.9706,-102.64853 c 0,0 -17.43319,-38.84003 -20.70192,-46.23813 -3.26873,-7.39807 -37.04546,-103.573291 -37.04546,-103.573291 -2.23616,-6.87426 -35.2856,34.22745 -35.2856,34.22745 l -7.20777,11.08586 -17.43319,83.228561 -1.08956,34.21621 c 0,0 15.25399,45.31331 21.79145,49.93712 6.53744,4.6238 -285.46822,-5.54858 -285.46822,-5.54858 z"
       id="path5313"
       inkscape:connector-curvature="0"
       sodipodi:nodetypes="ccccccscccccsc" />
    <path
       style="fill:#ff9955;fill-rule:evenodd;stroke:#000000;stroke-width:0.28106138;stroke-linecap:butt;stroke-linejoin:miter;stroke-miterlimit:4;stroke-dasharray:none;stroke-opacity:1"
       d="m 504.83778,238.23292 c 20.35957,-15.42007 46.13489,-35.21428 54.88049,-47.54354 11.99395,-6.31836 10.39447,7.52076 6.75508,10.92486 7.4352,-3.59148 11.62634,-0.97026 10.24145,4.92072 -3.50529,7.52809 -6.79302,18.1232 -17.63478,24.34636 3.79749,-0.55642 11.45696,1.82097 11.06664,4.69632 l 0.17908,6.57872 c -21.82047,-1.30037 -37.94237,2.23591 -65.48782,-3.92344 z"
       id="path5273"
       inkscape:connector-curvature="0"
       sodipodi:nodetypes="ccccccccc" />
    <path
       style="fill:#000000;fill-rule:evenodd;stroke:#000000;stroke-width:0.84318423;stroke-linecap:butt;stroke-linejoin:miter;stroke-miterlimit:4;stroke-dasharray:none;stroke-opacity:1"
       d="m 369.07331,-72.259921 -7.70445,7.84687 6.54881,-0.32695 -0.77047,5.23125 5.77836,-4.25039 2.69654,3.92344 4.62268,-5.23126 6.93402,6.53908 -4.6227,-12.09726 z"
       id="path5319"
       inkscape:connector-curvature="0"
       sodipodi:nodetypes="cccccccccc" />
    <path
       style="fill:none;fill-rule:evenodd;stroke:#ff7f2a;stroke-width:1.68636847;stroke-linecap:butt;stroke-linejoin:miter;stroke-miterlimit:4;stroke-dasharray:none;stroke-opacity:1"
       d="m 397.10963,-137.1602 c 4.49483,8.1616 0.17723,13.81166 11.9853,24.04382 3.81767,4.31556 3.52149,8.73481 -6.18242,13.409039 -3.93136,1.3846 -7.16446,0.50738 -8.52682,0 -2.68179,-1.846009 -5.20162,-2.042739 -7.62701,-1.277369"
       id="path5323"
       inkscape:connector-curvature="0"
       sodipodi:nodetypes="ccccc" />
    <path
       style="display:inline;fill:none;fill-rule:evenodd;stroke:#ff7f2a;stroke-width:1.68636847;stroke-linecap:butt;stroke-linejoin:miter;stroke-miterlimit:4;stroke-dasharray:none;stroke-opacity:1"
       d="m 360.02883,-136.8416 c -4.49484,8.16159 -0.17722,13.81164 -11.98531,24.0438 -3.81768,4.31558 -3.52149,8.73481 6.18244,13.409039 3.93135,1.3846 7.16444,0.50739 8.52681,0 2.68178,-1.845999 5.20163,-2.042739 7.62702,-1.277359"
       id="path5323-6"
       inkscape:connector-curvature="0"
       sodipodi:nodetypes="ccccc" />
    <rect
       style="opacity:1;fill:#1c1c24;stroke:#ff7f2a;stroke-width:0;stroke-miterlimit:4;stroke-dasharray:none;stroke-opacity:1"
       id="rect5357"
       width="43.094074"
       height="212.87357"
       x="664.04138"
       y="161.08199"
       transform="matrix(0.98761353,-0.15690607,-0.51916824,0.85467207,0,0)" />
  </g>
</svg>
