<?xml version="1.0" encoding="UTF-8" standalone="no"?>
<!-- Created with Inkscape (http://www.inkscape.org/) -->

<svg
   xmlns:dc="http://purl.org/dc/elements/1.1/"
   xmlns:cc="http://creativecommons.org/ns#"
   xmlns:rdf="http://www.w3.org/1999/02/22-rdf-syntax-ns#"
   xmlns:svg="http://www.w3.org/2000/svg"
   xmlns="http://www.w3.org/2000/svg"
   xmlns:sodipodi="http://sodipodi.sourceforge.net/DTD/sodipodi-0.dtd"
   xmlns:inkscape="http://www.inkscape.org/namespaces/inkscape"
   width="210mm"
   height="297mm"
   viewBox="0 0 744.09448819 1052.3622047"
   id="svg2"
   version="1.1"
   inkscape:version="0.91 r13725"
   sodipodi:docname="cak lontong.svg">
  <defs
     id="defs4">
    <marker
       inkscape:stockid="Arrow1Lstart"
       orient="auto"
       refY="0.0"
       refX="0.0"
       id="Arrow1Lstart"
       style="overflow:visible"
       inkscape:isstock="true">
      <path
         id="path4819"
         d="M 0.0,0.0 L 5.0,-5.0 L -12.5,0.0 L 5.0,5.0 L 0.0,0.0 z "
         style="fill-rule:evenodd;stroke:#000000;stroke-width:1pt;stroke-opacity:1;fill:#000000;fill-opacity:1"
         transform="scale(0.8) translate(12.5,0)" />
    </marker>
    <inkscape:perspective
       sodipodi:type="inkscape:persp3d"
       inkscape:vp_x="0 : 526.1811 : 1"
       inkscape:vp_y="0 : 1000 : 0"
       inkscape:vp_z="744.09449 : 526.1811 : 1"
       inkscape:persp3d-origin="372.04724 : 350.7874 : 1"
       id="perspective4600" />
  </defs>
  <sodipodi:namedview
     id="base"
     pagecolor="#ffffff"
     bordercolor="#666666"
     borderopacity="1.0"
     inkscape:pageopacity="0.0"
     inkscape:pageshadow="2"
     inkscape:zoom="0.49497475"
     inkscape:cx="46.701305"
     inkscape:cy="486.11381"
     inkscape:document-units="px"
     inkscape:current-layer="layer1"
     showgrid="false"
     inkscape:window-width="1301"
     inkscape:window-height="744"
     inkscape:window-x="65"
     inkscape:window-y="24"
     inkscape:window-maximized="1" />
  <metadata
     id="metadata7">
    <rdf:RDF>
      <cc:Work
         rdf:about="">
        <dc:format>image/svg+xml</dc:format>
        <dc:type
           rdf:resource="http://purl.org/dc/dcmitype/StillImage" />
        <dc:title />
      </cc:Work>
    </rdf:RDF>
  </metadata>
  <g
     inkscape:label="Layer 1"
     inkscape:groupmode="layer"
     id="layer1"
     style="display:inline">
    <path
       style="fill:#1c1c24;fill-rule:evenodd;stroke:#000000;stroke-width:3.1914053px;stroke-linecap:butt;stroke-linejoin:miter;stroke-opacity:1"
       d="m 287.29186,337.70965 -6.27289,35.91432 25.55835,39.64463 c 0,0 5.78138,211.99995 13.08343,211.99995 7.30201,0 -16.42961,112.44011 -16.42961,112.44011 l -27.19507,218.76437 c -7.46944,60.55527 -45.52409,96.09757 -70.48291,142.34967 -34.312,36.5595 -7.6821,37.5829 -171.861228,-2.0513 -1.822195,-90.315 30.499934,-163.95637 21.269912,-240.92958 L 58.612882,821.68284 102.42506,558.37393 82.61727,385.89589 199.43313,354.47954 Z"
       id="path5238"
       inkscape:connector-curvature="0"
       sodipodi:nodetypes="cccscccccccccc" />
    <path
       style="fill:#ffb380;fill-rule:evenodd;stroke:#000000;stroke-width:0;stroke-linecap:butt;stroke-linejoin:miter;stroke-miterlimit:4;stroke-dasharray:none;stroke-opacity:1"
       d="m 293.48918,292.57886 -6.65617,52.1428 c -11.85121,46.87443 55.49565,57.20423 77.67875,105.76028 0,0 90.57169,-86.28952 94.6515,-89.57673 4.07981,-3.28718 -13.32606,-58.43231 -13.32606,-58.43231 z"
       id="path5232"
       inkscape:connector-curvature="0"
       sodipodi:nodetypes="cccscc" />
    <path
       style="fill:#f9f9f9;fill-rule:evenodd;stroke:#000000;stroke-width:0;stroke-linecap:butt;stroke-linejoin:miter;stroke-miterlimit:4;stroke-dasharray:none;stroke-opacity:1"
       d="m 399.08359,181.57016 c 17.85325,-7.44193 28.89583,-6.11354 48.52961,0.58556 -15.52913,5.52348 -30.9933,5.90732 -48.52961,-0.58556 z"
       id="path4606"
       inkscape:connector-curvature="0"
       sodipodi:nodetypes="ccc" />
    <path
       style="fill:#ffb380;fill-rule:evenodd;stroke:#ff9955;stroke-width:0.63445592;stroke-linecap:butt;stroke-linejoin:miter;stroke-miterlimit:4;stroke-dasharray:none;stroke-opacity:1"
       d="m 384.2831,66.181993 c -38.45382,-6.615828 -94.34512,1.032999 -103.54069,16.965267 -20.47584,15.703584 -16.30767,55.31468 -20.01209,66.38577 -6.80762,20.3456 -9.58441,105.83898 12.18126,130.55873 11.29718,12.83046 37.90174,28.85346 54.76116,36.24945 56.10417,24.61207 90.47181,4.23537 108.81579,-4.53182 33.01174,-20.40501 43.60579,-21.71187 48.72505,-104.00439 l 2.51119,-78.17802 C 486.17741,117.17568 464.57716,93.004609 457.3707,89.048205 418.21133,65.923203 417.09784,68.277216 384.2831,66.181993 Z"
       id="path4556"
       inkscape:connector-curvature="0"
       sodipodi:nodetypes="ccsssccccc" />
    <path
       style="fill:#000000;fill-rule:evenodd;stroke:#000000;stroke-width:0.31722796;stroke-linecap:butt;stroke-linejoin:miter;stroke-miterlimit:4;stroke-dasharray:none;stroke-opacity:1"
       d="m 337.73328,319.92325 -9.57099,15.49001 c 0,0 8.70089,-5.90097 7.83079,-3.31928 -0.87005,2.58166 -8.26585,15.85882 -6.52564,15.85882 1.74015,0 12.18124,-14.01479 12.18124,-14.01479 l -1.30516,10.69548 6.52571,-7.00737 c 0,0 4.35043,7.745 4.35043,10.32668 0,2.58167 6.09065,-8.85145 6.09065,-8.85145 l 0.43504,9.95787 9.13595,-10.6955 c 0,0 -1.30513,10.32668 -1.7402,14.01478 -0.43503,3.68814 4.7855,-9.22024 4.7855,-9.22024 l 4.35046,4.05692 2.61029,-9.95788 6.96069,16.22763 4.7855,-15.48999 4.35046,9.58906 2.17525,-9.22028 2.61026,-6.63855 0.43503,6.26977 6.52568,-2.95047 1.30513,0 -1.30513,7.00737 7.39576,-7.74501 3.9154,-1.47526 -13.05134,-11.06429 -3.04529,4.42572 -10.44109,-5.90095 -12.61631,6.63859 -6.09065,-5.90098 -16.53172,3.31931 -7.83081,-4.79453 -10.87612,0.36881 z"
       id="path5321"
       inkscape:connector-curvature="0" />
    <path
       style="fill:#ffffff;fill-rule:evenodd;stroke:#000000;stroke-width:0;stroke-linecap:butt;stroke-linejoin:miter;stroke-miterlimit:4;stroke-dasharray:none;stroke-opacity:1"
       d="m 304.2645,178.7683 c 18.64986,-6.09199 33.80329,-4.5783 46.10568,1.35152 -14.58862,7.01271 -30.74869,5.83791 -46.10568,-1.35152 z"
       id="path4610"
       inkscape:connector-curvature="0"
       sodipodi:nodetypes="ccc" />
    <path
       style="opacity:1;fill:#000000;stroke-width:0;stroke-miterlimit:4;stroke-dasharray:none"
       id="path4642"
       sodipodi:type="arc"
       sodipodi:cx="330.12"
       sodipodi:cy="179.40663"
       sodipodi:rx="5.4380631"
       sodipodi:ry="4.0569091"
       sodipodi:start="0"
       sodipodi:end="6.1912775"
       d="m 335.55806,179.40663 a 5.4380631,4.0569091 0 0 1 -5.31313,4.05584 5.4380631,4.0569091 0 0 1 -5.55726,-3.86947 5.4380631,4.0569091 0 0 1 5.05777,-4.23364 5.4380631,4.0569091 0 0 1 5.78967,3.67493 l -5.41511,0.37234 z" />
    <path
       style="opacity:1;fill:#e6e6e6;stroke-width:0;stroke-miterlimit:4;stroke-dasharray:none"
       id="path4644"
       sodipodi:type="arc"
       sodipodi:cx="332.38541"
       sodipodi:cy="178.07108"
       sodipodi:rx="1.867602"
       sodipodi:ry="1.2460908"
       sodipodi:start="0"
       sodipodi:end="6.2540558"
       d="m 334.25301,178.07108 a 1.867602,1.2460908 0 0 1 -1.854,1.24605 1.867602,1.2460908 0 0 1 -1.88101,-1.22791 1.867602,1.2460908 0 0 1 1.82661,-1.26394 1.867602,1.2460908 0 0 1 1.90761,1.2095 l -1.86681,0.0363 z" />
    <path
       style="opacity:1;fill:#1a1a1a;fill-rule:evenodd;stroke:#000000;stroke-width:0;stroke-linecap:butt;stroke-linejoin:miter;stroke-miterlimit:0;stroke-dasharray:none;stroke-opacity:1"
       d="m 256.27432,183.12095 -5.11504,-53.50365 c 3.93276,-21.28085 1.30666,-47.009968 15.66166,-61.222464 l 7.83079,-8.851458 c 2.60487,-5.900921 7.18479,-8.851433 5.22055,-14.752377 -1.46867,-7.470397 50.52558,-29.93536 54.8157,-25.816668 2.30367,2.211601 23.4924,-3.688114 31.32322,-0.737636 7.83082,2.950478 34.80359,2.212842 42.63442,4.425717 7.83082,2.212842 33.93351,7.376196 34.8036,13.27714 0.87011,5.900967 30.45317,19.915744 30.45317,24.341461 0,4.425717 3.48034,16.965266 5.22054,20.653369 1.74018,3.688081 12.18125,22.866196 11.31116,29.504806 -0.87009,6.63856 3.0523,34.5633 1.74019,39.09384 -2.70917,9.35447 -7.5316,40.9391 -5.32607,29.72083 l 0.97563,7.89778 -5.22056,-32.45529 -9.57097,-12.53952 c -3.26008,-6.8699 11.84032,1.62749 -13.05135,-19.17813 -0.031,-1.18616 -4.13468,-28.879899 -15.66163,-33.930495 1.66249,3.523501 -30.644,-4.78021 -32.19335,-5.90098 -12.77942,-9.24438 -77.8007,3.628273 -81.20415,-1.180531 3.41671,2.896513 6.66535,-12.788876 1.73733,-6.147384 0,0 7.0051,-4.775979 -8.21397,5.610411 -5.83035,3.978975 -41.96266,6.880858 -41.96266,6.880858 l -14.79156,34.668141 c 1.58441,27.33256 -5.22045,21.63711 -6.09059,30.24241 z"
       id="path4595"
       inkscape:connector-curvature="0"
       sodipodi:nodetypes="cccccssssssssccccccscsscccc" />
    <path
       style="display:inline;fill:#ffffff;fill-rule:evenodd;stroke:#000000;stroke-width:0;stroke-linecap:butt;stroke-linejoin:miter;stroke-miterlimit:4;stroke-dasharray:none;stroke-opacity:1"
       d="m 446.36908,180.58883 c -18.64985,-6.09199 -33.80329,-4.57832 -46.10568,1.35152 14.58861,7.0127 30.74868,5.83792 46.10568,-1.35152 z"
       id="path4610-2"
       inkscape:connector-curvature="0"
       sodipodi:nodetypes="ccc" />
    <path
       style="opacity:1;fill:#000000;stroke-width:0;stroke-miterlimit:4;stroke-dasharray:none"
       id="path4642-6"
       sodipodi:type="arc"
       sodipodi:cx="419.13257"
       sodipodi:cy="181.14122"
       sodipodi:rx="5.4380631"
       sodipodi:ry="4.0569091"
       sodipodi:start="0"
       sodipodi:end="6.276429"
       d="m 424.57063,181.14122 a 5.4380631,4.0569091 0 0 1 -5.42888,4.0569 5.4380631,4.0569091 0 0 1 -5.44721,-4.0432 5.4380631,4.0569091 0 0 1 5.41047,-4.07056 5.4380631,4.0569091 0 0 1 5.4655,4.02945 l -5.43794,0.0274 z" />
    <path
       style="opacity:1;fill:#e6e6e6;stroke-width:0;stroke-miterlimit:4;stroke-dasharray:none"
       id="path4665"
       sodipodi:type="arc"
       sodipodi:cx="417.46698"
       sodipodi:cy="180.00293"
       sodipodi:rx="1.8457397"
       sodipodi:ry="1.4343342"
       sodipodi:start="0"
       sodipodi:end="6.2764309"
       d="m 419.31272,180.00293 a 1.8457397,1.4343342 0 0 1 -1.84262,1.43433 1.8457397,1.4343342 0 0 1 -1.84885,-1.42949 1.8457397,1.4343342 0 0 1 1.83638,-1.43916 1.8457397,1.4343342 0 0 1 1.85505,1.42463 l -1.8457,0.01 z" />
    <path
       style="opacity:1;fill:#000000;stroke-width:0;stroke-miterlimit:4;stroke-dasharray:none"
       id="path4697"
       d="m 346.12337,174.93751 c -1.84463,0.1172 -3.60873,-0.40178 -5.36297,-0.81364 -1.10646,-0.0609 -2.07479,-0.49785 -3.14943,-0.68096 -0.33766,-0.0575 -0.68684,-0.062 -1.02097,-0.13238 -0.56228,-0.11839 -1.09023,-0.33265 -1.63783,-0.49291 -0.28906,-0.0461 -0.58545,-0.0669 -0.86714,-0.1384 -1.38706,-0.35355 -0.39712,-0.27252 -1.86371,-0.69837 -0.41894,-0.12155 -0.8625,-0.17116 -1.29012,-0.26872 -1.1716,-0.26697 -1.09777,-0.27075 -2.20972,-0.63418 -0.41314,-0.0733 -0.83612,-0.11444 -1.23942,-0.22022 -0.33593,-0.0883 -0.63023,-0.27192 -0.96701,-0.35807 -0.37566,-0.0961 -0.77442,-0.10986 -1.15672,-0.1846 -0.3311,-0.0649 -0.64848,-0.17671 -0.98161,-0.23365 -0.35566,-0.0609 -1.71475,-0.17906 -2.10266,-0.21471 -1.77775,-0.19889 -3.51611,-0.0701 -5.29038,0.0233 -0.33973,0.048 -0.67757,0.10863 -1.01956,0.14426 -0.78097,0.0814 -0.88778,-0.007 -1.67973,0.14778 -0.96103,0.18519 -1.89173,0.54271 -2.82034,0.8167 -1.78752,0.72314 -3.69159,1.16947 -5.49141,1.86505 -1.62125,0.52997 -3.18864,1.14484 -4.80338,1.68336 -0.26839,0.0896 -0.53694,0.17962 -0.80542,0.26932 0,0 5.99523,-3.3834 5.99523,-3.3834 l 0,0 c 0.25631,-0.0883 0.5124,-0.17671 0.76864,-0.26492 1.65464,-0.56978 3.2909,-1.17591 4.93516,-1.76772 1.83982,-0.59719 3.70932,-1.12514 5.50681,-1.81432 1.75057,-0.44866 3.47394,-0.86145 5.3252,-0.83914 1.83883,-0.2509 3.74775,-0.24097 5.58873,-9.9e-4 0.67611,0.10367 1.36088,0.17262 2.02838,0.31071 1.13458,0.23455 0.86434,0.29033 1.99007,0.53425 2.12419,0.46 0.37368,-0.0884 2.24094,0.56439 1.07585,0.19599 1.43234,0.23018 2.45687,0.53328 0.37635,0.11135 0.73097,0.27282 1.1107,0.37567 0.40041,0.1083 0.82648,0.14076 1.22413,0.25617 0.26357,0.0766 0.48417,0.24038 0.74826,0.31574 0.28529,0.0812 0.59047,0.0999 0.88571,0.15012 0.85129,0.1989 1.91607,0.36889 2.72894,0.59365 0.28081,0.0778 0.52482,0.23484 0.80457,0.31525 0.55144,0.15865 1.65269,0.31668 2.20994,0.40594 1.02692,0.23747 2.03299,0.40398 3.08775,0.52859 0.50746,0.0598 1.01301,0.17963 1.52503,0.16297 0.29767,-0.008 0.58869,-0.0788 0.88308,-0.11839 0,0 -6.28461,3.26487 -6.28461,3.26487 z"
       inkscape:connector-curvature="0" />
    <path
       style="opacity:1;fill:#000000;stroke-width:0;stroke-miterlimit:4;stroke-dasharray:none"
       id="path4697-7"
       d="m 404.31708,177.4966 c 1.84464,0.11722 3.60874,-0.40177 5.36301,-0.81362 1.10642,-0.061 2.07476,-0.49783 3.14941,-0.68096 0.33764,-0.0575 0.68684,-0.0619 1.02095,-0.13238 0.56229,-0.11839 1.09023,-0.33264 1.63785,-0.49291 0.28907,-0.0461 0.58545,-0.0669 0.86713,-0.13842 1.38707,-0.35353 0.39711,-0.2725 1.8637,-0.69835 0.41895,-0.12155 0.86248,-0.17116 1.29014,-0.26872 1.17159,-0.26698 1.09775,-0.27077 2.20974,-0.63419 0.41312,-0.0733 0.83611,-0.11443 1.2394,-0.22021 0.33591,-0.0884 0.63022,-0.27192 0.967,-0.35807 0.37566,-0.0961 0.77443,-0.10986 1.15672,-0.1846 0.33109,-0.0649 0.64851,-0.17671 0.98164,-0.23365 0.35561,-0.0609 1.71471,-0.17907 2.10262,-0.21468 1.77778,-0.19892 3.51615,-0.07 5.29038,0.0233 0.33973,0.048 0.67759,0.10862 1.01957,0.14425 0.78098,0.0814 0.88775,-0.006 1.67974,0.14779 0.96102,0.18517 1.89172,0.5427 2.82034,0.81669 1.7875,0.72312 3.69159,1.16946 5.49138,1.86506 1.62129,0.52995 3.18869,1.14483 4.80339,1.68335 0.26841,0.0896 0.53696,0.17964 0.80541,0.2693 0,0 -5.99518,-3.38338 -5.99518,-3.38338 l 0,0 c -0.25633,-0.0884 -0.51245,-0.17672 -0.76867,-0.26493 -1.65466,-0.56975 -3.2909,-1.1759 -4.93517,-1.76772 -1.83983,-0.59718 -3.70929,-1.12513 -5.50678,-1.81432 -1.7506,-0.44863 -3.47394,-0.86145 -5.32523,-0.83913 -1.83882,-0.2509 -3.74773,-0.24097 -5.58871,-10e-4 -0.6761,0.10368 -1.36088,0.17263 -2.0284,0.31072 -1.13457,0.23455 -0.86433,0.29033 -1.99004,0.53426 -2.1242,0.46002 -0.37368,-0.0883 -2.24096,0.56439 -1.07586,0.196 -1.43235,0.23017 -2.45685,0.53328 -0.37639,0.11134 -0.73097,0.27282 -1.11073,0.37569 -0.4004,0.1083 -0.82643,0.14075 -1.22412,0.25615 -0.26357,0.0766 -0.48417,0.24037 -0.74826,0.31573 -0.28527,0.0812 -0.59049,0.0999 -0.8857,0.15012 -0.85129,0.19891 -1.91608,0.36891 -2.72895,0.59367 -0.28079,0.0778 -0.52479,0.23483 -0.80458,0.31525 -0.55144,0.15864 -1.65267,0.31668 -2.20992,0.40594 -1.02694,0.23745 -2.03298,0.40397 -3.08778,0.52857 -0.50744,0.0598 -1.01299,0.17964 -1.52502,0.16298 -0.29766,-0.008 -0.5887,-0.079 -0.88307,-0.11839 0,0 6.2846,3.26486 6.2846,3.26486 z"
       inkscape:connector-curvature="0" />
    <path
       style="opacity:1;fill:#ff7f2a;stroke-width:0;stroke-miterlimit:4;stroke-dasharray:none"
       id="path4744"
       d="m 404.86742,196.27584 c 2.51433,0.26609 4.9894,0.92689 7.40181,1.63138 1.16886,0.16148 2.31609,0.57875 3.50015,0.66556 0.39555,0.0294 0.79566,-0.0499 1.1905,-0.0149 0.81131,0.0742 1.60021,0.2883 2.40705,0.39494 2.29366,0.2541 4.56822,0.6198 6.89054,0.65817 2.25068,-0.0917 4.45562,-0.47091 6.68313,-0.75856 2.03946,-0.0629 3.88964,-0.8337 5.83051,-1.28542 2.0804,-0.73737 4.10443,-1.56148 6.11156,-2.45564 0.41435,-0.21996 0.83843,-0.42515 1.24306,-0.65939 0.50812,-0.29424 1.99833,-1.2236 1.49357,-0.92476 -3.3903,2.00707 -4.53179,2.87123 -2.18802,1.19158 0,0 4.9877,-2.15426 4.9877,-2.15426 l 0,0 c -2.99497,2.24172 -6.28653,4.14103 -9.63085,5.92331 -2.00073,0.87283 -4.01306,1.70389 -6.12068,2.34517 -1.934,0.65799 -3.94601,1.08227 -5.99216,1.31558 -2.21243,0.18079 -4.40024,0.5774 -6.62812,0.61346 -2.32401,-0.0791 -4.6328,-0.20739 -6.89653,-0.7419 -2.45933,-0.0958 -4.8537,-0.49131 -7.24741,-1.02356 -2.41299,-0.60765 -4.82905,-1.35834 -7.33667,-1.50353 0,0 4.30086,-3.21835 4.30086,-3.21835 z"
       inkscape:connector-curvature="0" />
    <path
       style="opacity:1;fill:#ff7f2a;stroke-width:0;stroke-miterlimit:4;stroke-dasharray:none"
       id="path4744-5"
       d="m 349.22266,195.29368 c -2.51431,0.26607 -4.9894,0.92685 -7.40182,1.63135 -1.16885,0.16147 -2.31607,0.57878 -3.50011,0.66559 -0.39557,0.0294 -0.7957,-0.05 -1.19053,-0.0149 -0.81129,0.0742 -1.6002,0.28827 -2.40704,0.39489 -2.29366,0.2541 -4.56823,0.61984 -6.89056,0.65821 -2.25066,-0.0918 -4.4556,-0.47092 -6.68311,-0.75858 -2.03945,-0.0629 -3.88965,-0.83372 -5.8305,-1.28542 -2.08042,-0.73739 -4.10443,-1.56149 -6.11158,-2.45567 -0.41433,-0.21993 -0.83841,-0.4251 -1.24305,-0.65936 -0.50812,-0.29424 -1.99832,-1.22358 -1.49357,-0.92477 3.39028,2.00708 4.53181,2.87123 2.18803,1.19159 0,0 -4.98771,-2.15426 -4.98771,-2.15426 l 0,0 c 2.99497,2.2417 6.28654,4.14101 9.63082,5.92332 2.00073,0.8728 4.01309,1.70389 6.1207,2.34516 1.93402,0.65801 3.94603,1.08229 5.99215,1.31557 2.21244,0.18079 4.40025,0.57741 6.62814,0.61345 2.32401,-0.0791 4.6328,-0.20736 6.8965,-0.7419 2.45937,-0.0958 4.85373,-0.49128 7.24746,-1.02354 2.41297,-0.60765 4.82902,-1.35835 7.33665,-1.50354 0,0 -4.30087,-3.21836 -4.30087,-3.21836 z"
       inkscape:connector-curvature="0" />
    <path
       style="fill:#a02c2c;fill-rule:evenodd;stroke:#000000;stroke-width:0;stroke-linecap:butt;stroke-linejoin:miter;stroke-miterlimit:4;stroke-dasharray:none;stroke-opacity:1"
       d="m 331.1523,269.28747 c 9.98112,-5.14621 31.6852,-8.60602 31.6852,-8.60602 6.6381,-1.38515 9.46101,2.60213 14.4583,3.39026 2.07089,-3.37866 10.36266,-3.65099 10.36266,-3.65099 9.96318,2.34324 15.26744,4.1687 15.26744,4.1687 l 9.74657,5.7412 c -26.51608,-2.43027 -52.566,-3.43561 -81.52017,-1.04315 z"
       id="path5143"
       inkscape:connector-curvature="0"
       sodipodi:nodetypes="ccccscc" />
    <path
       style="fill:#a02c2c;fill-rule:evenodd;stroke:#000000;stroke-width:0.9551903;stroke-linecap:butt;stroke-linejoin:miter;stroke-miterlimit:4;stroke-dasharray:none;stroke-opacity:1"
       d="m 330.84483,269.19499 c 27.54551,-1.28081 55.08643,-1.49514 81.83084,1.29902 -13.3325,6.65224 -20.36291,7.91614 -36.08483,9.36927 -16.56208,-1.57981 -31.6766,-2.89419 -45.74601,-10.66823 z"
       id="path5145"
       inkscape:connector-curvature="0"
       sodipodi:nodetypes="ccccc" />
    <path
       style="fill:#ffb380;fill-rule:evenodd;stroke:#000000;stroke-width:0;stroke-linecap:butt;stroke-linejoin:miter;stroke-miterlimit:4;stroke-dasharray:none;stroke-opacity:1"
       d="m 258.12002,184.93879 c -9.29276,-14.0148 -23.49638,-13.27718 -26.10268,-13.27718 -9.71122,6.82503 -3.97328,17.61689 -5.22054,28.02956 l 9.571,14.01478 c 3.11103,11.86827 1.41762,20.4104 6.09062,24.34149 10.39195,8.74201 20.17482,4.70158 19.14199,2.95047 l -0.87009,-0.73764 -3.48039,-57.53437"
       id="path5151"
       inkscape:connector-curvature="0"
       sodipodi:nodetypes="ccccsccc" />
    <path
       style="fill:#ff7f2a;fill-rule:evenodd;stroke:#000000;stroke-width:0;stroke-linecap:butt;stroke-linejoin:miter;stroke-miterlimit:4;stroke-dasharray:none;stroke-opacity:1"
       d="m 252.02942,224.03263 -0.87009,-29.136 c -3.62909,-14.59955 -13.36943,-6.10632 -15.66165,-1.84404 6.07518,16.32504 18.24565,19.32215 16.53174,30.98004 z"
       id="path5157"
       inkscape:connector-curvature="0"
       sodipodi:nodetypes="cccc" />
    <path
       style="fill:#ffb380;fill-rule:evenodd;stroke:#000000;stroke-width:0;stroke-linecap:butt;stroke-linejoin:miter;stroke-miterlimit:4;stroke-dasharray:none;stroke-opacity:1"
       d="m 483.59394,180.32035 c 9.29277,-14.0148 23.49641,-13.27718 26.1027,-13.27718 9.7112,6.82502 3.97327,17.61688 5.22053,28.02957 l -9.57099,14.01481 c -3.11105,11.86826 -1.41763,20.41039 -6.09063,24.34146 -10.39193,8.74206 -20.17483,4.7016 -19.142,2.95048 l 0.87009,-0.73763 3.4804,-57.5344"
       id="path5151-3"
       inkscape:connector-curvature="0"
       sodipodi:nodetypes="ccccsccc" />
    <path
       style="fill:#ff7f2a;fill-rule:evenodd;stroke:#000000;stroke-width:0;stroke-linecap:butt;stroke-linejoin:miter;stroke-miterlimit:4;stroke-dasharray:none;stroke-opacity:1"
       d="m 508.75125,172.6153 c -3.08593,1.35549 2.86104,1.1446 2.92945,5.78808 0.0141,0.86093 -0.0364,2.77013 -0.53483,3.93134 -1.5568,12.78401 -10.47439,20.76891 -15.13081,31.21845 2.90851,-9.21565 10.4352,-20.42544 3.10358,-27.06265 -6.37497,-5.77119 -0.46074,-17.33729 9.63261,-13.87522 z"
       id="path5174"
       inkscape:connector-curvature="0"
       sodipodi:nodetypes="csccsc" />
    <path
       style="opacity:1;fill:#000000;stroke-width:0;stroke-miterlimit:4;stroke-dasharray:none"
       id="path5194"
       sodipodi:type="arc"
       sodipodi:cx="358.22302"
       sodipodi:cy="235.12433"
       sodipodi:rx="9.2286997"
       sodipodi:ry="4.6941833"
       sodipodi:start="0"
       sodipodi:end="6.2764309"
       d="m 367.45172,235.12433 a 9.2286997,4.6941833 0 0 1 -9.21311,4.69418 9.2286997,4.6941833 0 0 1 -9.24423,-4.67833 9.2286997,4.6941833 0 0 1 9.18189,-4.70997 9.2286997,4.6941833 0 0 1 9.27524,4.66241 l -9.22849,0.0317 z" />
    <path
       style="fill:#000000;fill-rule:evenodd;stroke:#000000;stroke-width:0;stroke-linecap:butt;stroke-linejoin:miter;stroke-miterlimit:4;stroke-dasharray:none;stroke-opacity:1"
       d="m 376.68056,237.73213 c 4.9876,-2.26017 7.83683,-4.52034 18.14979,-6.78052 1.66254,0.31649 3.10148,0.0644 5.5372,2.34711 2.10427,5.25415 -0.0141,6.33082 -2.76861,6.7805 z"
       id="path5196"
       inkscape:connector-curvature="0"
       sodipodi:nodetypes="ccccc" />
    <path
       style="fill:none;fill-rule:evenodd;stroke:#000000;stroke-width:3.17227936px;stroke-linecap:butt;stroke-linejoin:miter;stroke-opacity:1"
       d="M 51.8303,386.1205 Z"
       id="path5263"
       inkscape:connector-curvature="0" />
    <path
       style="fill:#1c1c24;fill-rule:evenodd;stroke:#000000;stroke-width:3.17227936px;stroke-linecap:butt;stroke-linejoin:miter;stroke-opacity:1"
       d="m 640.00612,387.16367 -182.69733,-51.11444 1.81483,11.47466 -14.76594,52.15758 -9.84395,50.07133 -1.2305,147.0844 2.46099,35.46719 31.99281,292.08256 27.07086,84.49535 19.68791,54.2439 19.68788,45.8987 25.84034,32.3376 c 0,0 11.07447,11.4749 23.3794,13.561 12.30493,2.0864 98.43949,-20.8631 98.43949,-20.8631 0,0 17.22689,-8.3451 18.45737,-14.604 1.23049,-6.259 -4.92197,-35.4672 -4.92197,-43.8124 0,-8.3453 -12.30494,-60.5029 -12.30494,-60.5029 0,0 -6.15247,-41.72603 -6.15247,-46.94175 0,-5.21577 -17.22692,-49.02816 -17.22692,-49.02816 l -19.68786,-73.02064 -8.61344,-77.19327 -30.76234,-208.63036 -6.15251,-35.46721 18.45744,-55.28705 14.76591,-46.94182 z"
       id="path5315"
       inkscape:connector-curvature="0"
       sodipodi:nodetypes="ccccccccccccscsscscccccccc" />
    <path
       style="fill:#373748;fill-rule:evenodd;stroke:#000000;stroke-width:3.41122675;stroke-linecap:butt;stroke-linejoin:miter;stroke-miterlimit:4;stroke-dasharray:none;stroke-opacity:1"
       d="m 318.63983,371.69139 -33.63685,8.53808 28.89274,176.22876 2.61572,66.95786 -37.92748,330.24966 -18.66106,36.815 -38.75701,79.94035 291.52206,0.1371 -36.61963,-119.1622 -15.69414,-161.15277 -19.61764,-288.25912 1.30783,-65.82298 9.15492,-43.1254 -28.77255,-23.83243 -47.08238,47.6649 z"
       id="path5355"
       inkscape:connector-curvature="0"
       sodipodi:nodetypes="cccccccccccccccc" />
    <path
       style="display:inline;fill:#1c1c24;fill-rule:evenodd;stroke:#000000;stroke-width:3.17227936px;stroke-linecap:butt;stroke-linejoin:miter;stroke-opacity:1"
       d="m 456.61719,334.60692 -4.4251,21.07009 -42.5289,32.97687 20.56551,7.9719 11.43485,18.65652 c 10.53477,-21.28749 20.65258,-43.17133 20.65258,-43.17133 7.98043,-7.74474 -4.04533,-21.52841 -5.69894,-37.50405 z"
       id="path5240-5"
       inkscape:connector-curvature="0"
       sodipodi:nodetypes="cccccsc" />
    <path
       style="fill:#1c1c24;fill-rule:evenodd;stroke:#000000;stroke-width:3.17227936px;stroke-linecap:butt;stroke-linejoin:miter;stroke-opacity:1"
       d="m 287.55388,336.42832 9.18494,24.43095 c 17.02749,18.80406 33.31234,32.26234 30.13631,29.50556 0,0 -12.03317,0.55666 -22.6284,4.02355 -5.64789,1.84806 -8.91033,10.62389 -11.6834,19.31108 -11.24071,-25.314 -15.32936,-35.16942 -12.75422,-45.67524 z"
       id="path5240"
       inkscape:connector-curvature="0"
       sodipodi:nodetypes="ccsscsc" />
    <path
       style="fill:#1c1c24;fill-rule:evenodd;stroke:#000000;stroke-width:3.22087955px;stroke-linecap:butt;stroke-linejoin:miter;stroke-opacity:1"
       d="M 80.096212,385.72861 C 32.265713,504.17977 25.532841,769.85764 56.32433,768.15319 c 8.714774,25.41948 182.90984,15.86776 393.33575,2.95465 -0.18888,-14.36507 27.28475,-18.48215 19.32121,-70.05816 -81.20715,-15.8088 -172.81904,-13.84773 -240.82847,-16.05252 -18.07988,-0.5861 -46.1792,-26.85591 -45.04769,-36.49031 3.68173,-31.34934 -10.92926,-39.11754 -7.86756,-41.74922 -4.46055,-30.38478 5.47789,-14.61977 6.56864,-55.37445 5.64494,-53.05704 1.80938,-56.98589 -13.1083,-81.15318"
       id="path5261"
       inkscape:connector-curvature="0"
       sodipodi:nodetypes="ccccssccc" />
    <path
       style="fill:#ff9955;fill-rule:evenodd;stroke:#000000;stroke-width:0.30777332;stroke-linecap:butt;stroke-linejoin:miter;stroke-miterlimit:4;stroke-dasharray:none;stroke-opacity:1"
       d="m 450.99683,713.93628 c 20.25659,5.50077 39.98187,10.61867 65.50991,19.91877 l 50.36072,-4.05752 c -15.5977,8.02738 -24.30564,9.84764 -36.03046,14.38581 -4.22927,11.18963 -16.17923,16.68825 -29.06997,23.97633 l -52.81735,2.58201 c 4.29856,-18.46641 6.33084,-37.37249 2.04715,-56.8054 z"
       id="path5271"
       inkscape:connector-curvature="0"
       sodipodi:nodetypes="ccccccc" />
    <path
       style="fill:#ff9955;fill-rule:evenodd;stroke:#000000;stroke-width:0.31722796;stroke-linecap:butt;stroke-linejoin:miter;stroke-miterlimit:4;stroke-dasharray:none;stroke-opacity:1"
       d="m 518.02963,628.85939 c 22.99278,-17.39418 52.10176,-39.7225 61.97847,-53.63018 13.54519,-7.12726 11.73883,8.48358 7.62875,12.32349 8.39682,-4.05128 13.13003,-1.09449 11.56602,5.55068 -3.95864,8.49186 -7.67159,20.44337 -19.91558,27.46324 4.28864,-0.62766 12.93875,2.05409 12.49795,5.29755 l 0.20225,7.42095 c -24.64263,-1.46685 -42.84965,2.52215 -73.95769,-4.42573 z"
       id="path5273"
       inkscape:connector-curvature="0"
       sodipodi:nodetypes="ccccccccc" />
    <path
       style="fill:#ff9955;fill-rule:evenodd;stroke:#000000;stroke-width:0.31722796;stroke-linecap:butt;stroke-linejoin:miter;stroke-miterlimit:4;stroke-dasharray:none;stroke-opacity:1"
       d="m 178.07172,616.44642 c 3.48041,-0.73765 49.59517,-0.73765 49.59517,-0.73765 0,0 33.06343,7.37621 37.41387,7.37621 l 34.80361,0 -1.74018,65.64814 -20.88214,-6.63855 2.61026,9.58903 -8.70091,8.85147 c -25.62605,-6.13828 -47.72039,-16.76761 -68.73714,-28.76717 -14.83408,-11.829 -21.26168,-18.31304 -26.97279,-24.34146 z"
       id="path5275"
       inkscape:connector-curvature="0"
       sodipodi:nodetypes="ccscccccccc" />
    <path
       style="fill:#1c1c24;fill-rule:evenodd;stroke:#000000;stroke-width:3.17227936px;stroke-linecap:butt;stroke-linejoin:miter;stroke-opacity:1"
       d="m 277.01056,623.95917 2.46105,86.58159 c 170.72697,47.01942 235.32346,38.37648 326.08067,52.15764 42.4939,0.95093 67.9851,-7.70753 91.05653,-17.73359 35.2992,-17.92622 26.31325,-46.57893 39.37577,-69.89118 L 708.91375,559.28379 c 0,0 -19.68792,-43.81243 -23.3794,-52.15765 -3.6915,-8.3452 -41.83674,-116.833 -41.83674,-116.833 -2.52538,-7.75432 -39.84926,38.60933 -39.84926,38.60933 l -8.14,12.5051 -19.6879,93.88369 -1.23049,38.59665 c 0,0 17.22688,51.11443 24.60986,56.33019 7.38296,5.21575 -322.38926,-6.25893 -322.38926,-6.25893 z"
       id="path5313"
       inkscape:connector-curvature="0"
       sodipodi:nodetypes="ccccccscccccsc" />
    <path
       style="fill:#000000;fill-rule:evenodd;stroke:#000000;stroke-width:0.95168394;stroke-linecap:butt;stroke-linejoin:miter;stroke-miterlimit:4;stroke-dasharray:none;stroke-opacity:1"
       d="m 364.70607,278.6165 -8.70091,8.85144 7.39581,-0.36881 -0.87013,5.90098 6.52571,-4.79455 3.04529,4.42573 5.22057,-5.90098 7.83083,7.37624 -5.22058,-13.64599 z"
       id="path5319"
       inkscape:connector-curvature="0"
       sodipodi:nodetypes="cccccccccc" />
    <path
       style="fill:none;fill-rule:evenodd;stroke:#ff7f2a;stroke-width:1.90336788;stroke-linecap:butt;stroke-linejoin:miter;stroke-miterlimit:4;stroke-dasharray:none;stroke-opacity:1"
       d="m 396.36846,205.40752 c 5.07617,9.20647 0.20016,15.57986 13.53543,27.12197 4.31143,4.86805 3.97694,9.85306 -6.98202,15.1257 -4.43983,1.56186 -8.09108,0.57234 -9.62963,0 -3.02865,-2.08234 -5.87438,-2.30426 -8.61347,-1.4409"
       id="path5323"
       inkscape:connector-curvature="0"
       sodipodi:nodetypes="ccccc" />
    <path
       style="display:inline;fill:none;fill-rule:evenodd;stroke:#ff7f2a;stroke-width:1.90336788;stroke-linecap:butt;stroke-linejoin:miter;stroke-miterlimit:4;stroke-dasharray:none;stroke-opacity:1"
       d="m 354.49183,205.76691 c -5.07618,9.20646 -0.20016,15.57984 -13.53544,27.12195 -4.31144,4.86807 -3.97694,9.85306 6.98204,15.12569 4.43982,1.56187 8.09105,0.57236 9.62962,0 3.02864,-2.08232 5.87439,-2.30425 8.61347,-1.44089"
       id="path5323-6"
       inkscape:connector-curvature="0"
       sodipodi:nodetypes="ccccc" />
    <rect
       style="opacity:1;fill:#1c1c24;stroke:#ff7f2a;stroke-width:0;stroke-miterlimit:4;stroke-dasharray:none;stroke-opacity:1"
       id="rect5357"
       width="48.666256"
       height="240.20151"
       x="936.95575"
       y="637.56842"
       transform="matrix(0.98764177,-0.15672819,-0.5196093,0.85440399,0,0)" />
  </g>
  <g
     inkscape:groupmode="layer"
     id="layer2"
     inkscape:label="Layer 2" />
</svg>
